<svg xmlns="http://www.w3.org/2000/svg" width="50.586" height="50.602" viewBox="0 0 50.586 50.602">
  <path id="noun-information-5771558" d="M140.873,34.971A25.189,25.189,0,0,0,101,65.085L99.36,71.558a4.081,4.081,0,0,0,4.925,4.925l6.379-1.689h0a25.33,25.33,0,0,0,12.384,3.213,24.611,24.611,0,0,0,5.371-.586A25.189,25.189,0,0,0,140.873,34.97Zm-16.065,31.9a1.759,1.759,0,1,1-3.518,0V50.45a1.759,1.759,0,1,1,3.518,0ZM123.048,44a2.932,2.932,0,1,1,2.073-.859A2.933,2.933,0,0,1,123.048,44Z" transform="translate(-97.687 -27.405)" fill="#525252"/>
</svg>
