<svg xmlns="http://www.w3.org/2000/svg" width="64" height="64" viewBox="0 0 64 64">
  <g id="noun-colorblind-test-4569630" transform="translate(-87.5 -17.5)">
    <path id="Caminho_147" data-name="Caminho 147" d="M317.194,22.972a5.472,5.472,0,1,1-5.472-5.472,5.472,5.472,0,0,1,5.472,5.472" transform="translate(-192.222 0)" fill="#525252"/>
    <path id="Caminho_148" data-name="Caminho 148" d="M317.194,460.472A5.472,5.472,0,1,1,311.722,455a5.472,5.472,0,0,1,5.472,5.472" transform="translate(-192.222 -384.444)" fill="#525252"/>
    <path id="Caminho_149" data-name="Caminho 149" d="M535.944,241.722a5.472,5.472,0,1,1-5.472-5.472,5.472,5.472,0,0,1,5.472,5.472" transform="translate(-384.444 -192.222)" fill="#525252"/>
    <path id="Caminho_150" data-name="Caminho 150" d="M98.444,241.722a5.472,5.472,0,1,1-5.472-5.472,5.472,5.472,0,0,1,5.472,5.472" transform="translate(0 -192.222)" fill="#525252"/>
    <path id="Caminho_151" data-name="Caminho 151" d="M118.128,166.255a4.377,4.377,0,1,0-3.1-1.282A4.379,4.379,0,0,0,118.128,166.255Zm0-6.566a2.189,2.189,0,1,1-1.548.641A2.189,2.189,0,0,1,118.128,159.689Z" transform="translate(-22.967 -123.002)" fill="#525252"/>
    <path id="Caminho_152" data-name="Caminho 152" d="M172.817,99.533a3.283,3.283,0,1,1-3.283-3.283,3.283,3.283,0,0,1,3.283,3.283" transform="translate(-68.9 -68.9)" fill="#525252"/>
    <path id="Caminho_153" data-name="Caminho 153" d="M487.817,99.533a3.283,3.283,0,1,1-3.283-3.283,3.283,3.283,0,0,1,3.283,3.283" transform="translate(-345.889 -68.9)" fill="#525252"/>
    <path id="Caminho_154" data-name="Caminho 154" d="M236.255,48.128a4.377,4.377,0,1,0-1.282,3.1A4.379,4.379,0,0,0,236.255,48.128Zm-4.378,2.189a2.189,2.189,0,1,1,1.548-.641A2.189,2.189,0,0,1,231.878,50.317Z" transform="translate(-123.002 -22.967)" fill="#525252"/>
    <path id="Caminho_155" data-name="Caminho 155" d="M406.878,52.505a4.377,4.377,0,1,0-3.1-1.282A4.379,4.379,0,0,0,406.878,52.505Zm0-6.566a2.189,2.189,0,1,1-1.548.641A2.189,2.189,0,0,1,406.878,45.939Z" transform="translate(-276.754 -22.967)" fill="#525252"/>
    <path id="Caminho_156" data-name="Caminho 156" d="M520.628,166.255a4.377,4.377,0,1,0-3.1-1.282A4.379,4.379,0,0,0,520.628,166.255Zm0-6.566a2.189,2.189,0,1,1-1.548.641A2.189,2.189,0,0,1,520.628,159.689Z" transform="translate(-376.789 -123.002)" fill="#525252"/>
    <path id="Caminho_157" data-name="Caminho 157" d="M525.005,336.878a4.377,4.377,0,1,0-1.282,3.1A4.379,4.379,0,0,0,525.005,336.878Zm-6.567,0a2.189,2.189,0,1,1,.641,1.548A2.189,2.189,0,0,1,518.439,336.878Z" transform="translate(-376.789 -276.754)" fill="#525252"/>
    <path id="Caminho_158" data-name="Caminho 158" d="M487.817,414.533a3.283,3.283,0,1,1-3.283-3.283,3.283,3.283,0,0,1,3.283,3.283" transform="translate(-345.889 -345.889)" fill="#525252"/>
    <path id="Caminho_159" data-name="Caminho 159" d="M172.817,414.533a3.283,3.283,0,1,1-3.283-3.283,3.283,3.283,0,0,1,3.283,3.283" transform="translate(-68.9 -345.889)" fill="#525252"/>
    <path id="Caminho_160" data-name="Caminho 160" d="M406.878,455.005a4.377,4.377,0,1,0-3.1-1.282A4.379,4.379,0,0,0,406.878,455.005Zm0-6.567a2.189,2.189,0,1,1-1.548.641A2.189,2.189,0,0,1,406.878,448.439Z" transform="translate(-276.754 -376.789)" fill="#525252"/>
    <path id="Caminho_161" data-name="Caminho 161" d="M231.878,455.005a4.377,4.377,0,1,0-3.1-1.282A4.379,4.379,0,0,0,231.878,455.005Zm0-6.567a2.189,2.189,0,1,1-1.548.641A2.189,2.189,0,0,1,231.878,448.439Z" transform="translate(-123.002 -376.789)" fill="#525252"/>
    <path id="Caminho_162" data-name="Caminho 162" d="M118.128,332.5a4.377,4.377,0,1,0,3.1,1.282A4.379,4.379,0,0,0,118.128,332.5Zm0,6.567a2.189,2.189,0,1,1,1.548-.641A2.189,2.189,0,0,1,118.128,339.067Z" transform="translate(-22.967 -276.754)" fill="#525252"/>
    <path id="Caminho_163" data-name="Caminho 163" d="M234.067,257.033a3.283,3.283,0,1,1-3.283-3.283,3.284,3.284,0,0,1,3.283,3.283" transform="translate(-122.983 -207.533)" fill="#525252"/>
    <path id="Caminho_164" data-name="Caminho 164" d="M181.567,213.283A3.283,3.283,0,1,1,178.283,210a3.284,3.284,0,0,1,3.283,3.283" transform="translate(-76.864 -169.101)" fill="#525252"/>
    <path id="Caminho_165" data-name="Caminho 165" d="M181.567,300.783a3.283,3.283,0,1,1-3.283-3.283,3.284,3.284,0,0,1,3.283,3.283" transform="translate(-76.864 -245.965)" fill="#525252"/>
    <path id="Caminho_166" data-name="Caminho 166" d="M479.067,300.783a3.283,3.283,0,1,1-3.283-3.283,3.284,3.284,0,0,1,3.283,3.283" transform="translate(-338.202 -245.965)" fill="#525252"/>
    <path id="Caminho_167" data-name="Caminho 167" d="M339.067,213.283A3.283,3.283,0,1,1,335.783,210a3.283,3.283,0,0,1,3.283,3.283" transform="translate(-215.22 -169.101)" fill="#525252"/>
    <path id="Caminho_168" data-name="Caminho 168" d="M277.817,213.283A3.283,3.283,0,1,1,274.533,210a3.283,3.283,0,0,1,3.283,3.283" transform="translate(-161.415 -169.101)" fill="#525252"/>
    <path id="Caminho_169" data-name="Caminho 169" d="M277.817,300.783a3.283,3.283,0,1,1-3.283-3.283,3.284,3.284,0,0,1,3.283,3.283" transform="translate(-161.415 -245.965)" fill="#525252"/>
    <path id="Caminho_170" data-name="Caminho 170" d="M339.067,300.783a3.283,3.283,0,1,1-3.283-3.283,3.284,3.284,0,0,1,3.283,3.283" transform="translate(-215.22 -245.965)" fill="#525252"/>
    <path id="Caminho_171" data-name="Caminho 171" d="M479.067,213.283A3.283,3.283,0,1,1,475.783,210a3.283,3.283,0,0,1,3.283,3.283" transform="translate(-338.202 -169.101)" fill="#525252"/>
    <path id="Caminho_172" data-name="Caminho 172" d="M330.317,125.783a3.283,3.283,0,1,1-3.283-3.283,3.284,3.284,0,0,1,3.283,3.283" transform="translate(-207.533 -92.237)" fill="#525252"/>
    <path id="Caminho_173" data-name="Caminho 173" d="M330.317,388.283A3.283,3.283,0,1,1,327.033,385a3.284,3.284,0,0,1,3.283,3.283" transform="translate(-207.533 -322.829)" fill="#525252"/>
    <path id="Caminho_174" data-name="Caminho 174" d="M222.034,164.047a3.288,3.288,0,1,0-2.32-.963,3.285,3.285,0,0,0,2.32.963Zm-.777-4.06a1.094,1.094,0,1,1-.234,1.191,1.094,1.094,0,0,1,.234-1.191Z" transform="translate(-115.297 -122.963)" fill="#525252"/>
    <path id="Caminho_175" data-name="Caminho 175" d="M268.676,115.287a3.284,3.284,0,1,0,.96,2.32,3.283,3.283,0,0,0-.96-2.32Z" transform="translate(-154.302 -85.126)" fill="#525252"/>
    <path id="Caminho_176" data-name="Caminho 176" d="M390.029,114.139a3.283,3.283,0,1,0,.96,2.32,3.285,3.285,0,0,0-.96-2.32Z" transform="translate(-260.763 -83.975)" fill="#525252"/>
    <path id="Caminho_177" data-name="Caminho 177" d="M434.409,352.118a3.283,3.283,0,1,0-2.32.952,3.282,3.282,0,0,0,2.32-.952Zm-1.543-1.554h0a1.094,1.094,0,1,1,.234-1.191,1.094,1.094,0,0,1-.234,1.191Z" transform="translate(-299.826 -289.013)" fill="#525252"/>
    <path id="Caminho_178" data-name="Caminho 178" d="M423.284,260.3a3.288,3.288,0,1,0-2.32-.963,3.285,3.285,0,0,0,2.32.963Z" transform="translate(-292.085 -207.513)" fill="#525252"/>
    <path id="Caminho_179" data-name="Caminho 179" d="M435.315,164.171a3.284,3.284,0,1,0-.963,2.32,3.282,3.282,0,0,0,.963-2.32Zm-2.506.777a1.094,1.094,0,1,1,.234-1.192A1.094,1.094,0,0,1,432.809,164.948Z" transform="translate(-299.769 -125.956)" fill="#525252"/>
    <path id="Caminho_180" data-name="Caminho 180" d="M222.053,353.087a3.283,3.283,0,1,0-2.32-.963,3.284,3.284,0,0,0,2.32.963Zm-.777-4.049a1.1,1.1,0,1,1,0,1.543,1.095,1.095,0,0,1,0-1.543Z" transform="translate(-115.316 -289.03)" fill="#525252"/>
    <path id="Caminho_181" data-name="Caminho 181" d="M268.676,395.287a3.284,3.284,0,1,0,.96,2.32,3.283,3.283,0,0,0-.96-2.32Z" transform="translate(-154.302 -331.09)" fill="#525252"/>
    <path id="Caminho_182" data-name="Caminho 182" d="M390.6,399.333a3.284,3.284,0,1,0-2.32.96,3.284,3.284,0,0,0,2.32-.96Z" transform="translate(-261.338 -330.495)" fill="#525252"/>
    <path id="Caminho_183" data-name="Caminho 183" d="M312.822,190.317a6.566,6.566,0,0,0-6.567-6.566H297.5v2.189h8.755a4.378,4.378,0,1,1,0,8.755H297.5v2.189h8.755a4.378,4.378,0,1,1,0,8.755H297.5v2.189h8.755a6.566,6.566,0,0,0,3.622-12.039A6.566,6.566,0,0,0,312.822,190.317Z" transform="translate(-184.603 -146.289)" fill="#525252"/>
  </g>
</svg>
