<svg xmlns="http://www.w3.org/2000/svg" xmlns:xlink="http://www.w3.org/1999/xlink" width="64" height="64" viewBox="0 0 64 64">
  <defs>
    <clipPath id="clip-path">
      <circle id="Elipse_12" data-name="Elipse 12" cx="32" cy="32" r="32" transform="translate(53 97)" fill="#f9f9f8" stroke="#707070" stroke-width="1"/>
    </clipPath>
    <clipPath id="clip-path-2">
      <rect id="Ret칙ngulo_24" data-name="Ret칙ngulo 24" width="92.112" height="92.102" fill="none"/>
    </clipPath>
  </defs>
  <g id="Grupo_de_m치scara_3" data-name="Grupo de m치scara 3" transform="translate(-53 -97)" clip-path="url(#clip-path)">
    <g id="Grupo_13" data-name="Grupo 13" transform="translate(38.944 85.706)">
      <g id="Grupo_12" data-name="Grupo 12" transform="translate(0 0)" clip-path="url(#clip-path-2)">
        <path id="Caminho_83" data-name="Caminho 83" d="M92.112,46.051A45.672,45.672,0,0,1,83.746,72.5c-.454.662-.938,1.3-1.432,1.936-.049.059-.089.119-.138.168a1.715,1.715,0,0,1-.128.148,45.088,45.088,0,0,1-5.6,5.887c-.484.435-.988.85-1.492,1.255a44.438,44.438,0,0,1-5.581,3.852,44.852,44.852,0,0,1-4.267,2.232q-.667.311-1.363.593a43.5,43.5,0,0,1-5.295,1.837,44.837,44.837,0,0,1-8.11,1.482c-.553.059-1.106.1-1.669.128-.859.049-1.729.079-2.608.079-.919,0-1.827-.03-2.726-.079-.7-.04-1.4-.1-2.1-.168-1.037-.109-2.064-.257-3.082-.435-.277-.049-.543-.1-.81-.148-.4-.079-.78-.158-1.175-.247-.445-.1-.9-.207-1.343-.316-.207-.049-.425-.1-.632-.158-.435-.119-.869-.237-1.3-.365l-.109-.03c-1.264-.385-2.529-.82-3.744-1.314-.04-.02-.079-.03-.119-.049-.869-.346-1.729-.721-2.568-1.126q-.845-.385-1.66-.83c-.761-.385-1.511-.81-2.242-1.254-.306-.178-.612-.365-.9-.563a1.308,1.308,0,0,1-.2-.119c-.227-.128-.445-.277-.672-.425a.173.173,0,0,1-.049-.04c-.514-.336-1.037-.691-1.541-1.057-.267-.2-.533-.385-.79-.583a45.522,45.522,0,0,1-4.386-3.773c-.059-.049-.109-.109-.168-.158-.158-.158-.316-.326-.464-.484s-.306-.306-.445-.464a45.266,45.266,0,0,1-7.221-9.829c-.375-.682-.731-1.383-1.067-2.094-.286-.573-.543-1.156-.8-1.748a46.056,46.056,0,1,1,88.368-18.2" transform="translate(0 0)" fill="#d3e4f2"/>
        <path id="Caminho_84" data-name="Caminho 84" d="M82.827,75.476a45.089,45.089,0,0,1-5.6,5.887c-.484.435-.988.85-1.492,1.255a44.436,44.436,0,0,1-5.581,3.852A44.851,44.851,0,0,1,65.886,88.7q-.667.311-1.363.593c-2.558-17.79,4.761-30.325,4.761-30.325A109.394,109.394,0,0,1,82.827,75.476" transform="translate(-0.781 -0.72)" fill="#467bd4"/>
        <path id="Caminho_85" data-name="Caminho 85" d="M47.455,40.162H36.669L25.954,68.942l41.175-3.061s2.443-12.857-4.289-24.95-15.385-.77-15.385-.77" transform="translate(-0.317 -0.431)" fill="#2b417e"/>
        <path id="Caminho_86" data-name="Caminho 86" d="M45.87,28.948,33.157,61.961s-2.8,21-6.757,26q-.845-.385-1.66-.83c-.761-.385-1.511-.81-2.242-1.255-.306-.178-.612-.365-.9-.563a1.308,1.308,0,0,1-.2-.119c-.227-.128-.445-.277-.672-.425a.173.173,0,0,1-.049-.04c-.514-.336-1.037-.691-1.541-1.057-.267-.2-.533-.385-.79-.583a45.524,45.524,0,0,1-4.386-3.773c-.217-.207-.435-.425-.632-.642-.148-.158-.306-.306-.445-.464a45.266,45.266,0,0,1-7.221-9.829C5.291,67.7,4.936,67,4.6,66.287a11.135,11.135,0,0,1,4.089-5.443c6.786-4.2,9.957-.5,12.812-3.951,3.8-4.574-.573-7.655,1.462-13.8,2.084-6.273,6.559-6.144,10.668-8.683,3.793-2.331,3.477-7.616,3.9-9.73.227-1.146.4-.642.741-.425Z" transform="translate(-0.056 -0.292)" fill="#2b417e"/>
        <path id="Caminho_87" data-name="Caminho 87" d="M38.128,27.734a5.537,5.537,0,0,1-.446-3.126,16.958,16.958,0,0,1,.773-3.014c1.243-3.293,4.773-9.387,13.726-8.487,12.182,1.225,10.8,23.094,10.8,23.094L41.2,34.536Z" transform="translate(-0.459 -0.159)" fill="#2b417e"/>
        <path id="Caminho_88" data-name="Caminho 88" d="M75.22,82.51a44.441,44.441,0,0,1-5.581,3.852A45.29,45.29,0,0,1,50.6,92.507c-.553.059-1.106.1-1.669.128-.859.049-1.729.079-2.608.079-.919,0-1.827-.03-2.726-.079-.7-.04-1.4-.1-2.1-.168-1.037-.109-2.064-.257-3.082-.435-.672-.119-1.324-.247-1.985-.4-.445-.1-.9-.207-1.343-.316-.207-.049-.425-.1-.632-.158-.435-.119-.869-.237-1.3-.365-1.3-.385-2.6-.84-3.852-1.343-.04-.02-.079-.03-.119-.049a42.131,42.131,0,0,1-4.228-1.956c-.761-.385-1.511-.81-2.242-1.255-.306-.178-.612-.365-.9-.563.919-9.493,2.924-18.067,6.806-22.927a33.563,33.563,0,0,1,11.478-9.3A30.441,30.441,0,0,1,54.852,50.2c11.656,1.432,18.008,13.355,19.5,20.991a108.918,108.918,0,0,1,.869,11.32" transform="translate(-0.266 -0.612)" fill="#d3e4f2"/>
        <path id="Caminho_89" data-name="Caminho 89" d="M58.867,56.338s-.68,1.323-4.665.955c-6.135-.57-8.1-3.306-8.1-3.306l-.275-10.47,1.873.367,11.113,2.148.019,5.107Z" transform="translate(-0.559 -0.531)" fill="#f9f9f8"/>
        <path id="Caminho_90" data-name="Caminho 90" d="M58.854,51.144c-2.92-.294-8.523-1.506-10.8-6.264a3.282,3.282,0,0,1-.33-.992l11.113,2.149Z" transform="translate(-0.582 -0.536)" fill="#2b417e"/>
        <path id="Caminho_91" data-name="Caminho 91" d="M60.456,21.814S66.278,34.8,64.3,42.142,55.628,48.4,51.622,47.02a13.218,13.218,0,0,1-5.883-3.809,5.629,5.629,0,0,1-6.246-2.144c-2.528-3.444-1.029-7.443,1.091-8.376s4.668.58,4.668.58L43.23,29.5S51.4,10.166,60.456,21.814" transform="translate(-0.466 -0.221)" fill="#f9f9f8"/>
        <path id="Caminho_92" data-name="Caminho 92" d="M62.661,32.97a.494.494,0,0,1-.488-.422l-.357-2.423a.5.5,0,0,1,.113-.393l.973-1.14a.494.494,0,1,1,.752.641l-.828.97.324,2.2a.494.494,0,0,1-.417.561.442.442,0,0,1-.072,0" transform="translate(-0.754 -0.347)" fill="#2b417e"/>
        <path id="Caminho_93" data-name="Caminho 93" d="M53.072,28.872a.494.494,0,0,1-.439-.72c.912-1.77,3.145-1.31,3.239-1.29a.494.494,0,0,1-.206.966c-.064-.014-1.591-.319-2.154.776a.494.494,0,0,1-.44.268" transform="translate(-0.642 -0.327)" fill="#2b417e"/>
        <path id="Caminho_94" data-name="Caminho 94" d="M62.458,27.358a.494.494,0,0,1-.409-.214c-.094-.135-.434-.521-.76-.521-.269,0-.518.283-.681.52a.494.494,0,1,1-.815-.557,1.838,1.838,0,0,1,1.5-.95,2.139,2.139,0,0,1,1.576.951.494.494,0,0,1-.407.771" transform="translate(-0.729 -0.313)" fill="#2b417e"/>
        <path id="Caminho_95" data-name="Caminho 95" d="M45.3,33.249s5.7.153,9.6-6.087,3.44-7.822,3.44-7.822l3.881,6.44s.867-4.466-.919-7.313-3.641-2.257-3.641-2.257L45.3,19.3l-3.256,9.909Z" transform="translate(-0.513 -0.197)" fill="#2b417e"/>
        <path id="Caminho_96" data-name="Caminho 96" d="M55.36,33.555a.5.5,0,0,1-.49-.432l-.309-2.429a.492.492,0,0,1,.147-.418l1.253-1.208a.494.494,0,0,1,.687.711l-1.075,1.036L55.851,33a.5.5,0,0,1-.429.552.438.438,0,0,1-.062,0" transform="translate(-0.666 -0.353)" fill="#2b417e"/>
        <path id="Caminho_97" data-name="Caminho 97" d="M61.324,37.8a.494.494,0,0,1-.494-.487,18.114,18.114,0,0,0-1.545-5.84.494.494,0,0,1,.9-.412A18.8,18.8,0,0,1,61.818,37.3a.494.494,0,0,1-.487.5Z" transform="translate(-0.723 -0.375)" fill="#2b417e"/>
        <path id="Caminho_98" data-name="Caminho 98" d="M58.178,42.857c-.058,0-.119,0-.179-.007-1.72-.122-2.618-2.36-2.655-2.455a.492.492,0,0,1,.076-.492.483.483,0,0,1,.466-.176l4.462.766a.5.5,0,0,1,.361.272.49.49,0,0,1-.01.45,3.162,3.162,0,0,1-2.521,1.642m-1.456-1.983a2.032,2.032,0,0,0,1.347.992,1.729,1.729,0,0,0,1.3-.538Z" transform="translate(-0.675 -0.485)" fill="#2b417e"/>
        <path id="Caminho_99" data-name="Caminho 99" d="M44.809,38.963a.5.5,0,0,1-.354-.149L40.883,35.14a.494.494,0,0,1,.708-.688l3.571,3.674a.494.494,0,0,1-.354.839" transform="translate(-0.497 -0.419)" fill="#2b417e"/>
        <path id="Caminho_100" data-name="Caminho 100" d="M40.514,38.995a.494.494,0,0,1-.164-.96l3.195-1.122a.494.494,0,1,1,.327.932l-3.195,1.122a.491.491,0,0,1-.163.028" transform="translate(-0.488 -0.45)" fill="#2b417e"/>
        <path id="Caminho_101" data-name="Caminho 101" d="M55.742,58a14.68,14.68,0,0,1-9.992-3.536.494.494,0,0,1,.694-.7c.05.048,5.048,4.828,13.8,2.685a.493.493,0,1,1,.235.958,19.781,19.781,0,0,1-4.737.6" transform="translate(-0.556 -0.654)" fill="#2b417e"/>
        <path id="Caminho_102" data-name="Caminho 102" d="M42.791,82.7A25.148,25.148,0,0,1,37.6,91.925c-.4-.079-.78-.158-1.175-.247-.445-.1-.9-.207-1.343-.316-.207-.049-.425-.1-.632-.158-.435-.119-.869-.237-1.3-.365l-.109-.03c-1.264-.385-2.529-.82-3.744-1.314-.04-.02-.079-.03-.119-.049-.869-.346-1.729-.721-2.568-1.126q-.845-.385-1.66-.83c-.761-.385-1.511-.81-2.242-1.255-.306-.178-.612-.365-.9-.563.919-9.493,2.924-18.067,6.806-22.927a33.563,33.563,0,0,1,11.478-9.3c2.4,5.314,6.579,17.138,2.7,29.249" transform="translate(-0.266 -0.652)" fill="#467bd4"/>
        <path id="Caminho_103" data-name="Caminho 103" d="M36.373,55.55,32.945,90.834c-1.264-.385-2.529-.82-3.744-1.314-.04-.02-.079-.03-.119-.049-.869-.346-1.729-.721-2.568-1.126q-.845-.385-1.66-.83c-.761-.385-1.511-.81-2.242-1.255-.306-.178-.612-.366-.9-.563a1.308,1.308,0,0,1-.2-.119c-.227-.128-.445-.277-.672-.425a.174.174,0,0,1-.049-.04c-.514-.336-1.037-.691-1.541-1.057-.267-.2-.533-.385-.79-.583A45.524,45.524,0,0,1,14.078,79.7c-.059-.049-.109-.109-.168-.158C22.01,64.46,36.373,55.55,36.373,55.55" transform="translate(-0.17 -0.678)" fill="#467bd4"/>
      </g>
    </g>
  </g>
</svg>
