<svg id="Grupo_3" data-name="Grupo 3" xmlns="http://www.w3.org/2000/svg" xmlns:xlink="http://www.w3.org/1999/xlink" width="307.381" height="284.298" viewBox="0 0 307.381 284.298">
  <defs>
    <clipPath id="clip-path">
      <rect id="Retângulo_5" data-name="Retângulo 5" width="307.381" height="284.298" fill="none"/>
    </clipPath>
  </defs>
  <g id="Grupo_2" data-name="Grupo 2" clip-path="url(#clip-path)">
    <path id="Caminho_1" data-name="Caminho 1" d="M11.341,158.79c-1.931-18.9,11.458-34.413,25.155-49.2L107.86,32.525C118.966,20.532,130.9,8.011,147.529,2.674c22.839-7.327,49.218,1.217,66.909,15.73s28.51,34.066,38.94,53.15c11.34,20.746,33.86,31.378,29.6,65.674-4.921,39.627-48.765,53.516-85.825,66.473-76.1,26.608-179.241,19.411-185.813-44.91" transform="translate(7.096 0)" fill="#d3e4f2"/>
    <path id="Caminho_2" data-name="Caminho 2" d="M239.212,82.548S185.663,148.3,119.606,148.3,0,82.548,0,82.548,53.549,16.8,119.606,16.8,239.212,82.548,239.212,82.548" transform="translate(0 10.684)" fill="#f9f9f8"/>
    <path id="Caminho_3" data-name="Caminho 3" d="M76.389,121.221s-.458-15.344,11.929-15.344c0,0,.764,12.795-11.929,15.344" transform="translate(48.592 67.351)" fill="#2b417e"/>
    <path id="Caminho_4" data-name="Caminho 4" d="M170.453,37.936s-.458-15.344,11.929-15.344c0,0,.764,12.795-11.929,15.344" transform="translate(108.428 14.371)" fill="#2b417e"/>
    <path id="Caminho_5" data-name="Caminho 5" d="M71.253,149.375s-.51-17.1,13.294-17.1c0,0,.852,14.259-13.294,17.1" transform="translate(45.324 84.144)" fill="#467bd4"/>
    <path id="Caminho_6" data-name="Caminho 6" d="M107.457,124.516s-.51-17.1,13.294-17.1c0,0,.852,14.259-13.294,17.1" transform="translate(68.355 68.331)" fill="#467bd4"/>
    <path id="Caminho_7" data-name="Caminho 7" d="M5.8,73.407A183.148,183.148,0,0,1,58.617,31.239,141.929,141.929,0,0,1,90.9,18.934c2.847-.6,5.677-1.3,8.562-1.752,2.9-.383,5.792-.8,8.7-1.142l8.791-.412c1.466-.047,2.934.046,4.4.064,1.468.041,2.938.046,4.4.2l4.38.386c1.458.142,2.9.393,4.349.586,2.907.352,5.754,1,8.621,1.545,1.422.319,2.826.7,4.238,1.052s2.822.715,4.2,1.157l4.167,1.261,4.1,1.45a143.943,143.943,0,0,1,15.87,6.87c2.588,1.255,5.088,2.66,7.6,4.031,2.461,1.468,4.948,2.884,7.34,4.444A197.362,197.362,0,0,1,217.6,59.441a172.624,172.624,0,0,1,22.646,25.052,306.9,306.9,0,0,0-26.222-20.625c-4.5-3.2-9.087-6.263-13.771-9.134-2.336-1.445-4.7-2.837-7.052-4.233-2.389-1.34-4.764-2.691-7.178-3.961-4.812-2.57-9.707-4.948-14.681-7.089-4.967-2.16-10.008-4.092-15.124-5.733a129.754,129.754,0,0,0-31.283-6.271c-21.135-1.625-42.475,3.462-62.42,11.994A225.372,225.372,0,0,0,33.373,54.6c-9.5,5.666-18.532,12.142-27.572,18.8" transform="translate(3.69 9.932)" fill="#2b417e"/>
    <path id="Caminho_8" data-name="Caminho 8" d="M36.357,24.462A125.085,125.085,0,0,1,70.019,8.952a112.923,112.923,0,0,1,18.39-3.706A109.388,109.388,0,0,1,107.244,4.8a115.608,115.608,0,0,1,18.595,2.855,127.175,127.175,0,0,1,17.808,5.787A137.087,137.087,0,0,1,175.768,31.9a253.994,253.994,0,0,0-33.681-14.213,161.381,161.381,0,0,0-17.446-4.676,118.708,118.708,0,0,0-17.785-2.431,112.144,112.144,0,0,0-17.914.11A138.536,138.536,0,0,0,71.118,13.32,212.6,212.6,0,0,0,36.357,24.462" transform="translate(23.128 2.922)" fill="#467bd4"/>
    <path id="Caminho_9" data-name="Caminho 9" d="M239.514,57.713A181.617,181.617,0,0,1,216.666,82a200.562,200.562,0,0,1-26.811,20.19c-2.364,1.52-4.8,2.929-7.235,4.352-1.216.712-2.48,1.34-3.721,2.011s-2.493,1.319-3.77,1.924a163.755,163.755,0,0,1-15.574,6.774,129.789,129.789,0,0,1-33.312,7.51,112.424,112.424,0,0,1-34.156-2.484,141.553,141.553,0,0,1-31.929-11.509,187.214,187.214,0,0,1-53.2-40.214C24.48,84.1,43.058,96.057,63,104.609c19.884,8.513,41.327,13.282,62.536,11.492a115.727,115.727,0,0,0,15.812-2.284,155.936,155.936,0,0,0,15.478-4.31,182.939,182.939,0,0,0,29.6-13.145c4.779-2.59,9.429-5.432,14.031-8.372s9.112-6.046,13.532-9.292a279.951,279.951,0,0,0,25.52-20.987" transform="translate(4.424 36.713)" fill="#467bd4"/>
    <path id="Caminho_10" data-name="Caminho 10" d="M145.557,77.22A50.173,50.173,0,1,1,95.385,27.048,50.173,50.173,0,0,1,145.557,77.22" transform="translate(28.761 17.206)" fill="#467bd4"/>
    <path id="Caminho_11" data-name="Caminho 11" d="M111.727,67.749A25.813,25.813,0,1,1,85.914,41.936a25.813,25.813,0,0,1,25.813,25.813" transform="translate(38.232 26.677)" fill="#2b417e"/>
    <path id="Caminho_12" data-name="Caminho 12" d="M95.955,42.825c5.82,4.648,7.862,11.765,4.562,15.895s-10.69,3.707-16.509-.941-7.862-11.765-4.563-15.895,10.692-3.707,16.51.941" transform="translate(49.534 24.837)" fill="#f9f9f8"/>
    <path id="Caminho_13" data-name="Caminho 13" d="M55.962,43.879l-.875-.787A45.687,45.687,0,0,1,68.912,32.619l.519,1.055a44.517,44.517,0,0,0-13.469,10.2" transform="translate(35.042 20.75)" fill="#f9f9f8"/>
    <path id="Caminho_14" data-name="Caminho 14" d="M56.224,91.439a45.813,45.813,0,0,1-4.13-45.414l1.07.492a44.629,44.629,0,0,0,4.022,44.244Z" transform="translate(30.483 29.278)" fill="#f9f9f8"/>
    <path id="Caminho_15" data-name="Caminho 15" d="M22.206,166.355l.42-.165-5.232-13.333c-.051-.119-4.748-11.471-1.224-15.452,1.319-1.489,3.671-1.765,6.991-.825l.478.136-.211-.45c-.069-.146-6.757-14.53-3.495-21.224a5.73,5.73,0,0,1,4.082-3.154l-.1-.44a6.157,6.157,0,0,0-4.39,3.4c-3.068,6.3,2.156,18.644,3.29,21.171-3.256-.833-5.605-.468-6.985,1.09-3.712,4.19.942,15.442,1.142,15.92Z" transform="translate(9.16 70.895)" fill="#d3e4f2"/>
    <path id="Caminho_16" data-name="Caminho 16" d="M24.932,137.425s-10.414-22.147.743-24.694,9.709,13.276,9.709,13.276,6.155-.291,6.967,10.7c0,0,8.755-7.1,14.49,9.558s3.045,34.166,3.045,34.166l-35.759-13.1L18.892,154s-8.7-20.751,6.041-16.576" transform="translate(10.395 71.535)" fill="#2b417e"/>
    <path id="Caminho_17" data-name="Caminho 17" d="M47.632,175.216l.4-.295C32.212,153.516,24.249,117,24.17,116.631l-.484.1c.08.368,8.064,36.99,23.946,58.482" transform="translate(15.067 74.192)" fill="#2b417e"/>
    <path id="Caminho_18" data-name="Caminho 18" d="M38.18,143.59l.092-.486c-.124-.025-12.507-2.461-18.251-11.369l-.416.268c5.861,9.089,18.449,11.563,18.575,11.587" transform="translate(12.471 83.8)" fill="#2b417e"/>
    <path id="Caminho_19" data-name="Caminho 19" d="M33.747,153.095c5.062-8.588,2.736-22.737,2.711-22.88l-.488.083c.023.141,2.318,14.113-2.649,22.544Z" transform="translate(21.197 82.833)" fill="#2b417e"/>
    <path id="Caminho_20" data-name="Caminho 20" d="M25.371,140.049l.412-.273c-2.106-3.169-1.3-8.513-1.288-8.565l-.489-.077c-.036.226-.849,5.586,1.365,8.915" transform="translate(15.16 83.418)" fill="#2b417e"/>
    <path id="Caminho_21" data-name="Caminho 21" d="M27.443,132.38c3.051-1.79,2.516-8.23,2.492-8.5l-.492.044c0,.064.532,6.4-2.25,8.032Z" transform="translate(17.298 78.802)" fill="#2b417e"/>
    <path id="Caminho_22" data-name="Caminho 22" d="M26.965,123.457l.245-.429c-.043-.026-4.324-2.513-5.4-6.054l-.474.144c1.131,3.73,5.442,6.234,5.625,6.338" transform="translate(13.575 74.411)" fill="#2b417e"/>
    <path id="Caminho_23" data-name="Caminho 23" d="M55.261,197.779a71.142,71.142,0,0,0,17.853-5.607l-.183-.414c-14.9,6.617-26.437,7.786-34.3,3.478a18.168,18.168,0,0,1-8.84-12.1l-.021-.139-.133-.043C21.766,180.439,17,176.7,15.482,171.838c-2.134-6.811,2.94-13.537,2.992-13.6l.155-.2-.223-.131c-.173-.1-17.366-10.216-17.749-17.829a5.008,5.008,0,0,1,2.369-4.4l-.267-.365a5.432,5.432,0,0,0-2.554,4.791c.376,7.474,15.658,16.821,17.759,18.071-.844,1.2-4.905,7.456-2.916,13.807,1.563,4.984,6.379,8.809,14.316,11.369a18.663,18.663,0,0,0,9.045,12.291c4.481,2.454,10.118,3.168,16.85,2.147" transform="translate(0.127 86.07)" fill="#467bd4"/>
    <path id="Caminho_24" data-name="Caminho 24" d="M74.86,192.5s-.794-50.324-29.778-35.668c0,0-6.767-22.058-22.368-14.99,0,0-7.587-13.384-17.983-5.821s15.4,22.61,15.4,22.61S6.9,175.878,31.4,183.7c0,0,3.994,26.327,43.457,8.8" transform="translate(1.439 85.055)" fill="#467bd4"/>
    <path id="Caminho_25" data-name="Caminho 25" d="M69.741,188.536l.144-.473c-.335-.1-33.84-10.7-59.28-47.749l-.407.281c25.542,37.2,59.207,47.837,59.544,47.94" transform="translate(6.487 89.258)" fill="#2b417e"/>
    <path id="Caminho_26" data-name="Caminho 26" d="M39.468,172.009c1.638-8.912-6.059-17.7-6.135-17.786l-.371.329c.077.085,7.613,8.7,6.021,17.368Z" transform="translate(20.967 98.106)" fill="#2b417e"/>
    <path id="Caminho_27" data-name="Caminho 27" d="M36.135,161.449c.465-.07.758-.124.836-.139l-.092-.486c-.154.031-15.6,2.835-21.553-3.869l-.371.329c5.4,6.077,17.813,4.676,21.18,4.166" transform="translate(9.513 99.843)" fill="#2b417e"/>
    <path id="Caminho_28" data-name="Caminho 28" d="M18.052,147.905l.047-.493c-.079-.008-7.852-.82-10.794-6.579l-.44.226c3.066,6,11.1,6.837,11.186,6.846" transform="translate(4.368 89.588)" fill="#2b417e"/>
    <path id="Caminho_29" data-name="Caminho 29" d="M30.881,162.962a26.166,26.166,0,0,0,4.452-1.032l-.152-.425c-.1.036-10,3.511-18.927-.792l-.2.407a25.637,25.637,0,0,0,14.823,1.842" transform="translate(10.215 102.233)" fill="#f9f9f8"/>
    <path id="Caminho_30" data-name="Caminho 30" d="M28.869,145.515l.324-.316c-.057-.059-5.769-5.816-13.912-5.262l.031.452c7.929-.54,13.5,5.069,13.557,5.126" transform="translate(9.721 88.994)" fill="#f9f9f8"/>
    <path id="Caminho_31" data-name="Caminho 31" d="M41.087,164.034H79.22v8.7a5.12,5.12,0,0,1-5.119,5.119H46.206a5.12,5.12,0,0,1-5.119-5.119Z" transform="translate(26.137 104.347)" fill="#f9f9f8"/>
    <rect id="Retângulo_1" data-name="Retângulo 1" width="38.133" height="43.244" transform="translate(67.224 225.552)" fill="#467bd4"/>
    <path id="Caminho_32" data-name="Caminho 32" d="M79.22,140.817V146.8H41.087v-5.982a10.493,10.493,0,0,1,10.494-10.5H68.724a10.5,10.5,0,0,1,10.5,10.5" transform="translate(26.137 82.901)" fill="#f9f9f8"/>
    <path id="Caminho_33" data-name="Caminho 33" d="M72.513,140.705H44.038l.792-19.732a2.274,2.274,0,0,1,1.417-2.048l.366-.151a6.322,6.322,0,0,0,3.876-4.944l1.212-8.31a1.752,1.752,0,0,1,1.734-1.5h9.679a1.752,1.752,0,0,1,1.734,1.5l1.212,8.31a6.322,6.322,0,0,0,3.876,4.944l.366.151a2.274,2.274,0,0,1,1.417,2.048Z" transform="translate(28.014 66.17)" fill="#2b417e"/>
    <path id="Caminho_34" data-name="Caminho 34" d="M73.277,135.565h-28.8a1.382,1.382,0,0,1-1.383-1.381v-9.1a1.382,1.382,0,0,1,1.383-1.383h28.8a1.382,1.382,0,0,1,1.381,1.383v9.1a1.381,1.381,0,0,1-1.381,1.381" transform="translate(27.413 78.69)" fill="#2b417e"/>
    <path id="Caminho_35" data-name="Caminho 35" d="M63.331,160.317a7.626,7.626,0,1,1-15.252,0c0-4.211,7.626-14.661,7.626-14.661s7.626,10.45,7.626,14.661" transform="translate(30.584 92.656)" fill="#2b417e"/>
    <rect id="Retângulo_2" data-name="Retângulo 2" width="20.587" height="0.79" transform="translate(79.73 202.209)" fill="#f9f9f8"/>
    <rect id="Retângulo_3" data-name="Retângulo 3" width="4.028" height="0.79" transform="translate(73.091 202.209)" fill="#f9f9f8"/>
    <path id="Caminho_36" data-name="Caminho 36" d="M61.265,182.041v-.79a4.73,4.73,0,0,0,4.723-4.725V158.073h.792v18.452a5.521,5.521,0,0,1-5.515,5.515" transform="translate(38.972 100.555)" fill="#2b417e"/>
    <path id="Caminho_37" data-name="Caminho 37" d="M168.665,23.466s-.51-17.1,13.294-17.1c0,0,.852,14.259-13.294,17.1" transform="translate(107.291 4.05)" fill="#467bd4"/>
    <path id="Caminho_38" data-name="Caminho 38" d="M84.71,142.243l-.064-.782a268.18,268.18,0,0,0,70.383-15.366l.27.736A268.866,268.866,0,0,1,84.71,142.243" transform="translate(53.846 80.212)" fill="#d3e4f2"/>
    <path id="Caminho_39" data-name="Caminho 39" d="M173.487,42.637l-.579-.28c3.786-7.855-7.665-14.468-7.781-14.534l.317-.56c.123.069,12.089,6.981,8.043,15.373" transform="translate(105.041 17.343)" fill="#2b417e"/>
    <path id="Caminho_40" data-name="Caminho 40" d="M135.3,50.733c-.036-.111-3.473-11.237,4.346-19.607a23.611,23.611,0,0,0,6.6-15.334l.643-.02a24.249,24.249,0,0,1-6.772,15.792c-7.565,8.1-4.238,18.865-4.2,18.973Z" transform="translate(85.571 10.033)" fill="#2b417e"/>
    <path id="Caminho_41" data-name="Caminho 41" d="M188.733,58.113s6.916-7.891-2.367-16.486c-5.011-4.638-7.778-7.984-8.879-13.833C175.439,16.93,172.092,7.9,161.43,7.807c-5.07-.043-9.38,4.382-9.38,4.382-11.149,2.523-4.571,12.6-12.026,24.332-6.25,9.836-3.914,17.788-1.533,21.592Z" transform="translate(86.523 4.966)" fill="#2b417e"/>
    <path id="Caminho_42" data-name="Caminho 42" d="M146.656,172.782l2.215-17.9H135.748l-.576,17.9Z" transform="translate(85.987 98.524)" fill="#d3e4f2"/>
    <path id="Caminho_43" data-name="Caminho 43" d="M135.325,163.159c4.957,1.3,12.323-1.062,12.323-1.062l.52-4.251-12.706,1.07Z" transform="translate(86.084 100.411)" fill="#d3e4f2"/>
    <path id="Caminho_44" data-name="Caminho 44" d="M123.254,176.921h34.108a1.121,1.121,0,0,0,1.1-1.315s-.023-.295-.061-.787c-.016-.211-.038-.468-.069-.756-.234-2.629-.823-7.876-1.9-9.668-.347-.574-1.61-.983-2.5.975-1.171,2.562-5.072,3.886-11.43-2.328a1.008,1.008,0,0,0-1.27-.136,42.531,42.531,0,0,1-7.356,3.878c-5.277,2.094-8.231,3.017-9.76,5.034a5.064,5.064,0,0,0-.741,2.245c-.038.259-.067.507-.09.756a17.7,17.7,0,0,0-.038,2.1" transform="translate(78.396 103.524)" fill="#2b417e"/>
    <path id="Caminho_45" data-name="Caminho 45" d="M123.271,170.418h35.115c-.016-.211-.039-.468-.069-.756H123.361c-.038.257-.067.507-.09.756" transform="translate(78.416 107.927)" fill="#f9f9f8"/>
    <path id="Caminho_46" data-name="Caminho 46" d="M138.239,167.742l.4-.643c-.036-.021-3.585-2.232-4.637-3.941l-.645.4c1.147,1.862,4.732,4.1,4.884,4.189" transform="translate(84.831 103.789)" fill="#f9f9f8"/>
    <path id="Caminho_47" data-name="Caminho 47" d="M192.125,165.577l-8-16.06-12.117,5.043,9.511,15.43Z" transform="translate(109.421 95.112)" fill="#d3e4f2"/>
    <path id="Caminho_48" data-name="Caminho 48" d="M173.256,157.5l3,4.869a20.417,20.417,0,0,0,9.987-7.363l-2.454-4.933Z" transform="translate(110.213 95.466)" fill="#d3e4f2"/>
    <path id="Caminho_49" data-name="Caminho 49" d="M132.327,216.416a686.533,686.533,0,0,1-2.158-71.332c.794-32.791,10.36-75.967,10.36-75.967l29.316,1.666s-3.617,66.836-11.135,144.963c0,0-10.862,5.177-26.383.671" transform="translate(82.694 43.967)" fill="#2b417e"/>
    <path id="Caminho_50" data-name="Caminho 50" d="M185.791,213.638s10.1-2.413,21.914-11.549A491.556,491.556,0,0,0,182.728,148.9s3.47-62.078-4.987-80.118l-31.073,2.466s-3.136,42.415,4.316,82.31c3.28,17.561,34.807,60.079,34.807,60.079" transform="translate(92.883 43.755)" fill="#2b417e"/>
    <path id="Caminho_51" data-name="Caminho 51" d="M156.092,70.932s-10.281,13.626-21.96,8.508c-5.4-2.371-19.486-25.146-20.083-25.9-.393-.517-5.61-1.886-7.3-5.177-.167-.327.2-.468.452-.417.982.2,1.765,1.167,1.954.978.362-.407-3.318-2.934-2.456-3.75.659-.628,3.932,3.2,4.136,3.043.424-.345-3.429-3.277-2.565-4.046.831-.738,3.207,2.623,3.423,2.5.365-.2-2.037-2.487-1.52-3.006.816-.785,3.974,3.794,4.431,3.685.753-.19-.771-2.606.11-2.983.831-.362,2.238,3.883,2.641,4.509,1.937,3,20.355,11.581,20.355,11.581,3.046-5.416,4.584-8.932,6.954-11.207Z" transform="translate(67.792 27.723)" fill="#d3e4f2"/>
    <path id="Caminho_52" data-name="Caminho 52" d="M210.283,62.8l-60.4,10.013-9.849,8.509a46.2,46.2,0,0,1-13.9-19.113S136.2,35.49,159.262,32.278C200.2,26.574,210.283,62.8,210.283,62.8" transform="translate(80.233 20.145)" fill="#467bd4"/>
    <path id="Caminho_53" data-name="Caminho 53" d="M197.1,106.972c-29.264,11.672-65.779-1.348-65.779-1.348l11.27-63.446L155.11,32.093s8.747,9.563,15.555,1.589c.093-.106,15.614,3.721,15.614,3.721Z" transform="translate(83.538 20.415)" fill="#467bd4"/>
    <path id="Caminho_54" data-name="Caminho 54" d="M169.293,181.716,200,166.865a1.121,1.121,0,0,0,.422-1.664s-.149-.257-.4-.682c-.106-.183-.237-.406-.391-.651-1.356-2.266-4.17-6.733-5.918-7.878-.563-.365-1.877-.183-1.828,1.968.061,2.817-2.875,5.707-11.3,2.88a1.01,1.01,0,0,0-1.2.432,42.55,42.55,0,0,1-4.935,6.693c-3.838,4.182-6.1,6.3-6.594,8.781a5.07,5.07,0,0,0,.311,2.345c.079.247.16.484.249.72a17.267,17.267,0,0,0,.88,1.908" transform="translate(106.749 99.135)" fill="#2b417e"/>
    <path id="Caminho_55" data-name="Caminho 55" d="M168.274,176.686,199.886,161.4c-.106-.185-.239-.406-.391-.651l-31.468,15.219c.077.247.159.486.247.72" transform="translate(106.887 102.256)" fill="#f9f9f8"/>
    <path id="Caminho_56" data-name="Caminho 56" d="M180.55,161.938l.079-.751c-.043,0-4.2-.45-5.892-1.53l-.407.636c1.842,1.178,6.042,1.626,6.221,1.644" transform="translate(110.896 101.562)" fill="#f9f9f8"/>
    <path id="Caminho_57" data-name="Caminho 57" d="M156.623,32.746l-.934-.347c-.09.108-.18.218-.276.327.154-.726.245-1.121.245-1.121Z" transform="translate(98.862 20.105)" fill="#467bd4"/>
    <path id="Caminho_58" data-name="Caminho 58" d="M169.285,83.648a127.922,127.922,0,0,1-38.03-6.193l.216-.605c.365.129,36.739,12.847,65.553,1.353l.239.6c-9.033,3.6-18.8,4.846-27.978,4.846" transform="translate(83.495 48.886)" fill="#2b417e"/>
    <path id="Caminho_59" data-name="Caminho 59" d="M168.8,81.013a127.268,127.268,0,0,1-36.941-5.9l.2-.612c6.175,2.009,38.3,11.509,64.583,1.027l.239.6c-9.1,3.629-18.9,4.884-28.082,4.884" transform="translate(83.877 47.393)" fill="#2b417e"/>
    <path id="Caminho_60" data-name="Caminho 60" d="M166.495,105.108c.5.74,2.634-1.085,2.927-.435.182.4-3.948,4.049-3.055,4.647.586.391,2.786-2.158,3.012-1.842.211.295-3.154,2.87-2.315,3.493.879.654,3.374-3.328,3.761-3,.191.16-3.387,3.883-2.688,4.373.934.658,3.181-3.215,3.632-2.952.223.129-.815,1.356-1.34,2.163-.291.448.023.756.34.579,3.29-1.816,5.483-8,5.926-8.46,28.858-29.9,2.112-60.479,2.112-60.479L160.523,53.608s21.558,23.564,11.491,45.242a11.83,11.83,0,0,1-1.9,3.2c-.592.432-4.1,2.354-3.622,3.061" transform="translate(102.113 27.476)" fill="#d3e4f2"/>
    <path id="Caminho_61" data-name="Caminho 61" d="M194.489,68.377s-12.5,10.851-23.127,11.509l-15.344-24.99-.411-23.207s29.346,2,38.881,36.689" transform="translate(98.987 20.158)" fill="#467bd4"/>
    <path id="Caminho_62" data-name="Caminho 62" d="M153.16,146.352a40.184,40.184,0,0,1-2.456-7.688,311.747,311.747,0,0,1-4.748-46.352l.645-.021a311.359,311.359,0,0,0,4.735,46.255,39.622,39.622,0,0,0,2.42,7.559Z" transform="translate(92.847 58.709)" fill="#f9f9f8"/>
    <path id="Caminho_63" data-name="Caminho 63" d="M161.464,38.52a11.908,11.908,0,0,1-7.907,3.452,12.407,12.407,0,0,1-6.94-2.6l2.5-11.59,10.191-4.918Z" transform="translate(93.266 14.543)" fill="#d3e4f2"/>
    <path id="Caminho_64" data-name="Caminho 64" d="M155.477,25.692c-1.59,7.4-8.259,7.307-8.259,7.307l1.2-5.558Z" transform="translate(93.649 16.343)" fill="#2b417e"/>
    <path id="Caminho_65" data-name="Caminho 65" d="M143.656,17.637c-1.767,5.658-1.486,22.719,6.487,22.4C158.478,39.693,161.851,30,161.851,30a3.414,3.414,0,0,0,4.264-2.675c.7-3.2-2.637-4.1-3.923-2.7,0,0,1.294-7.832-3.475-10.422s-13.145-2.7-15.061,3.431" transform="translate(90.821 7.97)" fill="#d3e4f2"/>
    <path id="Caminho_66" data-name="Caminho 66" d="M162.315,25.3s-12.763.643-14.386-9.031c0,0-4.953-.848-5.17,8.6,0,0-1.687-9.75,5.26-12.544,4.768-1.919,11.45-.479,14.138,3.123,2.741,3.671.159,9.851.159,9.851" transform="translate(90.698 7.298)" fill="#2b417e"/>
    <rect id="Retângulo_4" data-name="Retângulo 4" width="34.591" height="0.644" transform="matrix(0.165, -0.986, 0.986, 0.165, 217.186, 113.138)" fill="#2b417e"/>
    <path id="Caminho_67" data-name="Caminho 67" d="M168.532,67.425c-.013-.095-1.394-9.591-8.977-15.574l.4-.506c7.793,6.149,9.2,15.895,9.216,15.993Z" transform="translate(101.497 32.662)" fill="#2b417e"/>
    <path id="Caminho_68" data-name="Caminho 68" d="M164.81,63.949l-.072-.64c11.063-1.234,22.3-11.648,22.407-11.752l.44.47c-.113.106-11.5,10.664-22.775,11.922" transform="translate(104.794 32.797)" fill="#2b417e"/>
    <path id="Caminho_69" data-name="Caminho 69" d="M139.308,65.75c-6.44-4.735-11.924-17.057-12.155-17.579l.589-.26c.056.126,5.646,12.688,11.947,17.32Z" transform="translate(80.886 30.478)" fill="#2b417e"/>
    <path id="Caminho_70" data-name="Caminho 70" d="M133.641,89.038l-.226-.6c.072-.026,7.176-2.76,8.123-9.5l.638.09c-1,7.122-8.46,9.984-8.536,10.011" transform="translate(84.869 50.214)" fill="#f9f9f8"/>
    <path id="Caminho_71" data-name="Caminho 71" d="M168.641,94.236c-12.547-1.332-11.913-13.154-11.9-13.274l.643.041c-.031.463-.6,11.327,11.329,12.593Z" transform="translate(99.7 51.502)" fill="#f9f9f8"/>
    <path id="Caminho_72" data-name="Caminho 72" d="M192.849,195.864a496.042,496.042,0,0,0-26.723-52.284l-.046-.079,0-.092c.008-.383.81-38.48-3.136-63.222l.636-.1c3.861,24.207,3.187,61.137,3.145,63.246a496.993,496.993,0,0,1,26.716,52.281Z" transform="translate(103.654 50.946)" fill="#f9f9f8"/>
    <path id="Caminho_73" data-name="Caminho 73" d="M144.842,186.295l-.641-.062c2.171-22.554,4.226-46.365,6.111-70.771l.641.049c-1.885,24.411-3.94,48.225-6.111,70.784" transform="translate(91.73 73.449)" fill="#f9f9f8"/>
  </g>
</svg>
