<svg xmlns="http://www.w3.org/2000/svg" width="35.432" height="28.346" viewBox="0 0 35.432 28.346">
  <g id="noun-camera-5772256" transform="translate(0)">
    <path id="Caminho_145" data-name="Caminho 145" d="M146.608,96.875h-2.3l-.709-1.417a3.645,3.645,0,0,0-3.366-2.126H128.538a3.644,3.644,0,0,0-3.366,2.126l-.709,1.417h-2.3a5.52,5.52,0,0,0-5.492,5.492v13.819a5.52,5.52,0,0,0,5.492,5.492h24.448a5.52,5.52,0,0,0,5.492-5.492V102.368a5.52,5.52,0,0,0-5.492-5.492Zm1.949,19.31a1.966,1.966,0,0,1-1.949,1.949H122.16a1.966,1.966,0,0,1-1.949-1.949V102.367a1.966,1.966,0,0,1,1.949-1.949h4.429l1.772-3.366c0-.177,0-.177.177-.177H140.23a.173.173,0,0,1,.177.177l1.772,3.366h4.429a1.966,1.966,0,0,1,1.949,1.949Z" transform="translate(-116.668 -93.332)" fill="#f9f9f8"/>
    <path id="Caminho_146" data-name="Caminho 146" d="M280.736,216.2a6.2,6.2,0,1,1-6.2-6.2,6.2,6.2,0,0,1,6.2,6.2" transform="translate(-256.819 -201.144)" fill="#f9f9f8"/>
  </g>
</svg>
