<svg xmlns="http://www.w3.org/2000/svg" width="20" height="20" viewBox="0 0 20 20">
  <g id="noun-edit-4025240" transform="translate(-116.67 -46.664)" opacity="0.8">
    <path id="Caminho_106" data-name="Caminho 106" d="M243.979,55.268a1,1,0,0,0-.282.566l-.613,4.321a1,1,0,0,0,1.109,1.133l4.219-.508h0a1,1,0,0,0,.587-.286l8.069-8.069a2,2,0,0,0,0-2.808L254.753,47.3a2,2,0,0,0-2.808,0Zm1.65,1.178,7.72-7.72,2.3,2.3-7.815,7.815-2.583.311Z" transform="translate(-120.981 -0.06)" fill="#f9f9f8"/>
    <path id="Caminho_107" data-name="Caminho 107" d="M119.67,46.664a3.016,3.016,0,0,0-3,3v14a3.016,3.016,0,0,0,3,3h14a3.016,3.016,0,0,0,3-3v-6h0a1,1,0,1,0-2,0v6a.977.977,0,0,1-1,1h-14a.977.977,0,0,1-1-1v-14a.977.977,0,0,1,1-1h5a1,1,0,0,0,0-2Z" fill="#f9f9f8"/>
  </g>
</svg>
